<?xml version="1.0" standalone="no"?>
<!DOCTYPE svg PUBLIC "-//W3C//DTD SVG 20010904//EN"
 "http://www.w3.org/TR/2001/REC-SVG-20010904/DTD/svg10.dtd">
<svg version="1.0" xmlns="http://www.w3.org/2000/svg"
 width="700.000000pt" height="700.000000pt" viewBox="0 0 700.000000 700.000000"
 preserveAspectRatio="xMidYMid meet">
<metadata>
Created by potrace 1.14, written by Peter Selinger 2001-2017
</metadata>
<g transform="translate(0.000000,700.000000) scale(0.100000,-0.100000)"
fill="#000000" stroke="none">
<path d="M3280 6973 c-323 -19 -670 -91 -996 -208 -190 -68 -521 -235 -701
-354 -781 -517 -1314 -1304 -1497 -2214 -50 -250 -61 -371 -61 -687 0 -308 11
-432 56 -665 292 -1486 1495 -2601 2999 -2781 1031 -123 2076 230 2819 951
601 584 959 1329 1041 2170 15 154 15 496 0 650 -82 836 -444 1591 -1040 2169
-696 673 -1649 1026 -2620 969z m-970 -2217 c584 -109 932 -502 982 -1113 29
-354 -47 -688 -213 -934 -61 -92 -191 -218 -289 -282 -94 -61 -241 -127 -340
-152 -175 -45 -202 -47 -807 -52 l-583 -5 0 1282 0 1281 578 -3 c497 -4 590
-7 672 -22z m2610 0 c462 -86 776 -350 915 -769 53 -160 69 -274 69 -487 0
-214 -16 -327 -70 -489 -139 -421 -447 -679 -914 -767 -82 -15 -172 -18 -672
-22 l-578 -3 0 1281 0 1281 578 -3 c497 -4 590 -7 672 -22z"/>
<path d="M1685 4249 c-3 -8 -4 -349 -3 -759 l3 -745 165 -3 c356 -7 533 44
663 188 63 70 114 179 139 298 30 138 30 406 0 544 -54 255 -183 394 -427 459
-66 17 -120 22 -307 26 -188 5 -229 3 -233 -8z"/>
<path d="M4295 4249 c-3 -8 -4 -349 -3 -759 l3 -745 165 -3 c400 -7 584 58
711 251 90 138 134 393 110 641 -34 350 -164 523 -446 597 -104 27 -531 41
-540 18z"/>
</g>
</svg>
